<?xml version="1.0" encoding="UTF-8" standalone="no"?>
<!DOCTYPE svg PUBLIC "-//W3C//DTD SVG 1.1//EN" "http://www.w3.org/Graphics/SVG/1.1/DTD/svg11.dtd">
<!-- Created with Inkscape (http://www.inkscape.org/) -->
<svg
   xmlns:dc="http://purl.org/dc/elements/1.1/"
   xmlns:cc="http://creativecommons.org/ns#"
   xmlns:rdf="http://www.w3.org/1999/02/22-rdf-syntax-ns#"
   xmlns:svg="http://www.w3.org/2000/svg"
   xmlns="http://www.w3.org/2000/svg"
   version="1.1"
   width="400"
   height="700"
   id="svg4762">
  <defs
     id="defs4764" />
  <metadata
     id="metadata4767">
    <rdf:RDF>
      <cc:Work
         rdf:about="">
        <dc:format>image/svg+xml</dc:format>
        <dc:type
           rdf:resource="http://purl.org/dc/dcmitype/StillImage" />
        <dc:title></dc:title>
      </cc:Work>
    </rdf:RDF>
  </metadata>
  <g
     transform="translate(0,-352.36218)"
     id="layer1">
    <g
       transform="translate(-182.67747,853.92361)"
       id="g5907">
      <path
         d="m 248.77918,-137.85333 0,-262.26129"
         id="path3531"
         style="fill:none;stroke:#231f20;stroke-width:13.75231361;stroke-linecap:butt;stroke-linejoin:miter;stroke-miterlimit:3.86400008;stroke-opacity:1;stroke-dasharray:none" />
      <path
         d="m 522.43913,-136.67532 c 0,-54.52182 0,-228.07699 0,-228.07699 0,0 7.13551,-47.02952 -48.26203,-60.65187 -55.39754,-13.62235 -101.19457,-51.92708 -101.19457,-51.92708 0,0 -10.7357,17.70905 -44.49966,31.94764 -40.25078,16.9955 -96.88082,36.19652 -96.88082,80.63131 0,64.57641 0,228.07699 0,228.07699 0,0 196.68072,45.375379 290.83708,0"
         id="path3533"
         style="fill:#fff200;fill-opacity:1;fill-rule:nonzero;stroke:none" />
      <path
         d="m 528.62652,-153.16693 c -117.72041,54.498468 -291.88093,9.10466 -291.88093,9.10466 0,0 -13.86496,13.64051 -27.72965,40.8577 -13.83226,27.281273 -41.52947,231.66627 166.21467,231.66627 1.37261,0 12.88389,-0.25947 13.83174,-0.2932 194.50063,-8.33247 207.25374,-201.457624 139.56417,-281.33932 z"
         id="path3537"
         style="fill:black;fill-opacity:1;fill-rule:evenodd;stroke:black;stroke-width:13.75231361;stroke-linecap:butt;stroke-linejoin:miter;stroke-miterlimit:3.86400008;stroke-opacity:1;stroke-dasharray:none" />
      <path
         d="m 499.26194,-145.60639 0,-255.47347"
         id="path3541"
         style="fill:none;stroke:black;stroke-width:9.73041058;stroke-linecap:butt;stroke-linejoin:miter;stroke-miterlimit:3.86400008;stroke-opacity:1;stroke-dasharray:none" />
      <path
         d="M 424.0518,120.3869 560.73815,-14.121959"
         id="path3545"
         style="fill:none;stroke:#00a650;stroke-width:14.59561443;stroke-linecap:square;stroke-linejoin:miter;stroke-miterlimit:5;stroke-opacity:1;stroke-dasharray:none" />
      <path
         d="m 227.39313,-134.44308 c 70.99214,20.46077 235.89881,35.09895 295.44558,-7.04547"
         id="path3549"
         style="fill:none;stroke:#00a650;stroke-width:10.99536324;stroke-linecap:square;stroke-linejoin:miter;stroke-miterlimit:5;stroke-opacity:1;stroke-dasharray:none" />
      <path
         d="m 477.6146,-142.93641 0,-255.50565 m -23.02098,270.14383 0,-45.13667 m -99.11411,43.94621 -0.55528,-58.58413 m -21.09154,57.23305 -0.58641,-230.34738 m -26.48755,230.34738 -0.55527,-265.83268 m -23.80563,265.83268 -0.55527,-265.83268 m -18.37746,256.53497 -0.59159,-265.86459 m 83.12355,-13.31928 22.85752,-38.60573"
         id="path4061"
         style="fill:none;stroke:black;stroke-width:9.73041058;stroke-linecap:butt;stroke-linejoin:miter;stroke-miterlimit:3.86400008;stroke-opacity:1;stroke-dasharray:none" />
      <path
         d="M 359.5343,122.99279 559.39746,-73.606979 M 308.0971,112.79445 541.80491,-117.10274 M 266.14287,93.234059 484.41618,-121.51015 M 235.01231,63.057321 414.96115,-113.98231 M 213.36497,23.518787 351.42498,-112.30923 M 203.882,-27.98795 293.21864,-115.84819 M 560.24775,-57.295972 493.0818,-123.4082 M 553.25002,-2.9583818 440.36903,-113.98231 M 540.43126,41.824365 383.89598,-112.18053 M 514.63106,73.770452 323.79315,-113.98231 M 484.74311,101.7274 259.21026,-120.15907 M 441.3501,116.3975 215.22877,-106.10004 M 388.47413,121.7058 200.31736,-63.376468 M 322.22334,117.71666 208.29616,5.6314801"
         id="path4065"
         style="fill:none;stroke:#00a650;stroke-width:14.59561443;stroke-linecap:square;stroke-linejoin:miter;stroke-miterlimit:5;stroke-opacity:1;stroke-dasharray:none" />
      <path
         d="m 527.58033,-144.06227 c 0,-54.49846 0,-228.09541 0,-228.09541 0,0 -10.49673,-59.38875 -84.59503,-71.13121 -41.95423,-6.65964 -65.89115,-26.63805 -70.07671,-41.27597 -3.85837,6.0805 -6.50733,23.87128 -48.06898,37.47961 -41.52895,13.64077 -88.09402,30.49849 -88.09402,74.92757 0,64.60002 0,228.09541 0,228.09541 0,0 -13.86496,13.64051 -27.72965,40.8577 -13.83226,27.281273 -41.52947,231.66627 166.21467,231.66627 13.83174,-0.2932 0,0 0,0 1.37261,0 -9.81016,40.95448 -11.70691,48.16083 -1.89675,7.17418 8.79666,4.21463 8.79666,4.21463 2.25742,-0.026 6.31091,-52.05371 16.74199,-52.66477 194.50063,-8.33246 206.17459,-192.352965 138.51798,-272.23466 z"
         id="path4069"
         style="fill:none;stroke:black;stroke-width:13.75231361;stroke-linecap:square;stroke-linejoin:miter;stroke-miterlimit:5;stroke-opacity:1;stroke-dasharray:none" />
    </g>
  </g>
</svg>
